<?xml version="1.0" encoding="utf-8"?>
<!-- Generator: Adobe Illustrator 23.1.0, SVG Export Plug-In . SVG Version: 6.00 Build 0)  -->
<svg version="1.1" id="Capa_1" xmlns="http://www.w3.org/2000/svg" xmlns:xlink="http://www.w3.org/1999/xlink" x="0px" y="0px"
	 viewBox="0 0 477.9 477.9" style="enable-background:new 0 0 477.9 477.9;" xml:space="preserve">
<style type="text/css">
	.st0{fill:#E91E63;}
	.st1{fill:#209EAC;}
	.st2{fill:#FFFFFF;}
</style>
<circle class="st0" cx="238.9" cy="238.9" r="237.3"/>
<g>
	<circle class="st2" cx="297.9" cy="142.5" r="42.9"/>
	<circle class="st2" cx="180" cy="163.9" r="42.9"/>
	<path class="st2" d="M256.2,263.6c-16.3-29-44.4-46.1-76.2-46.1c-24.7,0-47.5,10.4-64.2,29.2c-16.7,18.9-26.2,45.3-26.9,74.7
		c10.8,5.5,51.3,24.7,91.1,24.7c11.6-0.1,23.2-1.3,34.6-3.7C205.1,309.2,223.5,274.5,256.2,263.6L256.2,263.6z"/>
	<path class="st2" d="M276.4,271.1c-29.6,0-53.6,24-53.6,53.6s24,53.6,53.6,53.6s53.6-24,53.6-53.6C330,295.1,306,271.1,276.4,271.1
		z M303.2,330h-21.4v21.4c0,3-2.4,5.4-5.4,5.4c-3,0-5.4-2.4-5.4-5.4V330h-21.4c-3,0-5.4-2.4-5.4-5.4c0-3,2.4-5.4,5.4-5.4h21.4v-21.4
		c0-3,2.4-5.4,5.4-5.4c3,0,5.4,2.4,5.4,5.4v21.4h21.4c3,0,5.4,2.4,5.4,5.4C308.6,327.6,306.2,330,303.2,330z"/>
	<path class="st2" d="M297.9,196.1c-24.3,0-46.5,9.9-63,27.9c13,9.1,24,21.7,32.1,37.1c35.1-5.2,67.8,19,73.1,54.2
		c0.2,1.3,0.3,2.6,0.5,3.8c16.9-4.3,33.1-10.7,48.4-18.9c-0.6-29.4-10.1-55.9-26.9-74.9C345.4,206.4,322.6,196.1,297.9,196.1
		L297.9,196.1z"/>
</g>
</svg>
