<?xml version="1.0" encoding="utf-8"?>
<!-- Generator: Adobe Illustrator 23.1.0, SVG Export Plug-In . SVG Version: 6.00 Build 0)  -->
<svg version="1.1" id="Capa_1" xmlns="http://www.w3.org/2000/svg" xmlns:xlink="http://www.w3.org/1999/xlink" x="0px" y="0px"
	 viewBox="0 0 477.9 477.9" style="enable-background:new 0 0 477.9 477.9;" xml:space="preserve">
<style type="text/css">
	.st0{fill:#E91E63;}
	.st1{fill:#209EAC;}
	.st2{fill:#FFFFFF;}
</style>
<circle class="st0" cx="238.9" cy="238.9" r="237.3"/>
<g>
	<path class="st2" d="M379.6,277.3l-88.5-141.8c-11.3-18.2-30.9-29-52.2-29s-40.9,10.8-52.2,29L98.2,277.3c-6.1,9.7-9.3,21-9.3,32.5
		c0,33.9,27.6,61.5,61.5,61.5h177c33.9,0,61.5-27.6,61.5-61.5C388.9,298.3,385.7,287,379.6,277.3z M327.4,353.8h-177
		c-24.2,0-43.9-19.7-43.9-43.9c0-8.2,2.3-16.3,6.6-23.2l88.5-141.8c8.1-13,22-20.7,37.3-20.7s29.2,7.7,37.3,20.7l88.5,141.8
		c4.3,7,6.6,15,6.6,23.2C371.4,334.1,351.6,353.8,327.4,353.8z"/>
	<path class="st2" d="M261.3,154.1c-4.9-7.8-13.2-12.4-22.4-12.4s-17.5,4.7-22.4,12.4l-88.5,141.8c-2.6,4.2-4,9-4,13.9
		c0,14.5,11.8,26.4,26.4,26.4h177c14.5,0,26.4-11.8,26.4-26.4c0-4.9-1.4-9.8-4-13.9L261.3,154.1z M247.7,300.5h-17.6v-17.6h17.6
		V300.5z M247.7,265.3h-17.6v-62.1h17.6V265.3z"/>
</g>
</svg>
