<?xml version="1.0" encoding="utf-8"?>
<!-- Generator: Adobe Illustrator 22.1.0, SVG Export Plug-In . SVG Version: 6.00 Build 0)  -->
<svg version="1.1" id="Layer_1" xmlns="http://www.w3.org/2000/svg" xmlns:xlink="http://www.w3.org/1999/xlink" x="0px" y="0px"
	 viewBox="0 0 212.1 45.1" style="enable-background:new 0 0 212.1 45.1;" xml:space="preserve">
<style type="text/css">
	.st0{fill:#FF6602;}
	.st1{fill:#F2F2F2;}
	.st2{fill:#444343;}
	.st3{fill:#FFFFFF;}
	.st4{fill:none;stroke:#C1C1C1;stroke-miterlimit:10;}
	.st5{fill:#FF2E1B;}
	.st6{fill:#404040;}
</style>
<g>
	<path class="st6" d="M106.4,43.5c-26.4,0.4-52.8,0.8-79.1,1.2c-8.1,0.1-16.1,0.3-24.2,0.5c-1.1,0-2.3,0.1-2.9-1.1
		c-0.6-1.1,0-2.1,0.7-3c10-13.2,20-26.4,30-39.6c0.2-0.2,0.3-0.4,0.5-0.6c0.7-0.8,1.7-1.2,2.5-0.6c1.1,0.8-0.1,1.6-0.5,2.3
		c-6,9.9-12,19.8-18,29.8c-0.8,1.3-1.9,2.6-0.9,4.2c0.9,1.5,2.4,1.2,3.9,1.3c15.5,0.2,31.1,0.3,46.6,0.5c15.4,0.2,30.8,0.3,46.1,0.5
		c15.4,0.2,30.8,0.3,46.1,0.5c15.5,0.2,30.9,0.3,46.4,0.5c2.2,0,4.4,0.1,6.5,0.2c0.7,0,2-0.4,1.9,0.9c-0.1,1.1-1.1,0.7-1.8,0.7
		c-9.5,0.2-19,0.4-28.5,0.5c-21.4,0.3-42.8,0.7-64.3,1c-3.7,0.1-7.4,0-11.1,0C106.4,43.3,106.4,43.4,106.4,43.5z"/>
	<path class="st6" d="M30.1,29.7c1.6-2.7,3-5,4.4-7.2c4-6.5,8-13,11.9-19.6c0.8-1.3,1.6-2,3.2-1.8c1.3,0.1,2.7,0,4,0
		c4.1,0,4.1,0,4.6,4c0.8,7.5,1.6,15,2.5,22.5c0.2,1.6-0.2,2.3-1.9,2.1c-1.8-0.1-3.5-0.2-5.3,0c-1.8,0.2-2.5-0.6-2.2-2.3
		c0.2-1.8-0.6-2.2-2.2-2c-0.9,0.1-1.9,0.1-2.8,0c-2.4-0.4-4,0.4-4.9,2.8c-0.4,1.2-1.3,1.6-2.6,1.5C36.1,29.6,33.3,29.7,30.1,29.7z
		 M46.1,19.3c1.5,0,2.6-0.1,3.8,0c1,0.1,1.3-0.4,1.3-1.3c0-2.4,0-4.8,0-7.2c-0.2,0-0.5-0.1-0.7-0.1C49,13.5,47.7,16.2,46.1,19.3z"/>
	<path class="st6" d="M140.7,29.7c-3.1,0.1-5.7-0.4-8.5,0.4c-3.4,1-6.9-1.3-8.3-4.6c-3-7.4,2.9-16.7,10.9-17
		c1.3-0.1,2.6-0.1,3.7,0.6c1.8,1.2,2.5,0.8,2.6-1.2c0-0.3,0.2-0.6,0.3-1c0.5-1.8,0.2-4.7,1.5-5.3c2.1-0.9,4.8-0.3,7.2-0.4
		c1.1,0,0.9,0.6,0.8,1.3c-2,8.6-4,17.1-6,25.7c-0.3,1.2-0.9,1.7-2.1,1.5C142,29.6,141.1,29.7,140.7,29.7z M131.9,20.4
		c0,1.6,0.3,3.2,2,3.7c1.8,0.5,2.8-0.7,3.6-2.1c1-1.7,1.4-3.6,1.2-5.6c-0.2-1.2-0.6-2.3-2-2.6c-1.2-0.3-2.1,0.4-2.9,1.2
		C132.4,16.6,132.1,18.5,131.9,20.4z"/>
	<path class="st6" d="M73.5,28.5C71,30,68.3,30.9,65.4,30c-2.8-0.8-4.3-2.8-3.8-5.7c0.9-4.8,2-9.5,3-14.3c0.1-0.3,0.1-0.7,0.3-0.9
		c0.2-0.4,7.6-0.5,7.9-0.1c0.6,0.5,0.1,1.1,0,1.6c-0.6,3.1-1.4,6.2-2,9.3c-0.3,1.3-0.7,2.9,1,3.5c1.8,0.6,3.1-0.5,3.8-2
		c1.4-3.3,1.9-7,2.6-10.5c0.3-1.7,1-2.3,2.7-2.1c2,0.2,4.9-0.9,5.9,0.5c0.8,1.1-0.5,3.8-1,5.7c-1,4.2-2,8.5-3,12.7
		c-0.2,0.7-0.1,1.8-1,1.8c-2.6-0.1-5.3,0.8-7.8-0.4c0.2-0.3,0.4-0.7,0-1C74,28.1,73.7,28.4,73.5,28.5z"/>
	<path class="st6" d="M206.9,29.7c-3.1,0-5.6,0-8.1,0c-0.3,0-0.7,0.1-0.7,0c-1.3-2.5-2.6-0.3-3.9,0.1c-3,0.9-6,1.1-8.5-1.3
		c-2-1.9-2.1-4.3-1.2-6.8c1-2.5,3.1-3.8,5.5-4.3c2.4-0.5,4.8-0.7,7.2-1c0.8-0.1,1.8,0.3,2.1-0.8c0.2-0.7,0-1.4-0.6-1.8
		c-0.8-0.6-2-0.9-2.5-0.1c-2.1,2.9-5,1.3-7.6,1.6c-1.5,0.2-1.5-0.6-1.1-1.7c1-2.5,2.9-4.1,5.5-4.8c3.5-0.9,7.2-0.9,10.7,0
		c3.3,0.8,4.6,3.1,3.9,6.4c-0.6,2.7-1.1,5.4-1.8,8.1C205.3,25.4,205.1,27.4,206.9,29.7z M196.3,21.1c-2.4,0-4.6,1.2-4.5,2.4
		c0.1,1.2,0.9,1.5,1.9,1.4c1.9-0.2,3.4-1.1,3.9-3C197.9,20.8,196.8,21.2,196.3,21.1z"/>
	<path class="st6" d="M169.4,29.6c-3.2-0.6-6.7,1.4-10-1.2c-1,1-2.8,1.7-4.8,1.9c-3.5,0.5-6.6-1.3-7.5-4.2c-0.9-3.2,0.5-6.4,3.7-8
		c2.8-1.4,6-1.4,9.1-1.8c0.8-0.1,2,0.5,2.3-0.8c0.3-0.9-0.1-1.7-1-2.1c-1-0.4-2.2-0.4-2.7,0.7c-0.6,1.3-1.6,1.2-2.7,1.2
		c-0.8,0-1.7,0.1-2.5-0.1c-1-0.1-2.7,0.5-3-0.4c-0.5-1.2,0.6-2.5,1.4-3.6c1-1.3,2.4-2.1,4-2.5c3.5-0.9,7.1-1,10.7-0.1
		c3.6,0.9,4.9,3.2,4.1,6.8c-0.6,2.7-1.1,5.4-1.8,8.1C168.1,25.7,168.1,27.6,169.4,29.6z M156.5,24.9c1.8,0,4.2-1.8,4-3.1
		c-0.1-1.1-1.1-0.7-1.5-0.6c-1.7,0.3-3.9,0-4.4,2.4C154.4,24.6,155.5,24.9,156.5,24.9z"/>
	<path class="st6" d="M101.6,13.3c2.5-2.7,5.4-4.6,9.2-5c5.2-0.5,9.5,1.8,11.1,6c1.8,4.5,0.2,10.3-3.8,13.4
		c-3.8,2.8-7.9,3.5-12.4,1.8c-5.3-2-7.5-8.3-5-14.2C101.1,14.6,101.4,13.9,101.6,13.3L101.6,13.3z M107.9,20.4
		c0.2,1.5,0.3,3.3,2.3,3.7c2.1,0.4,3.1-1,3.7-2.6c0.6-1.6,0.9-3.2,0.5-4.9c-0.3-1.1-0.8-2-2-2.3c-1.3-0.3-2.3,0.4-3,1.4
		C108.3,17,108,18.6,107.9,20.4z"/>
	<path class="st6" d="M178.3,30c-6,0.1-7.9-2.1-6.9-7.6c0.4-2.3,1-4.6,1.4-6.9c0.2-1,1.2-2.4-1.1-2.3c-0.7,0-0.4-0.8-0.3-1.2
		c0.5-1-0.3-2.9,1.4-3.1c1.6-0.1,1.8-1,1.9-2.1c0.1-1.4,0.9-2,2.3-2.1c0.7,0,1.5-0.3,2.2-0.4c1.4-0.2,3.2-1,4.1-0.4
		c1.2,0.7-0.2,2.4-0.1,3.7c0,0.6-0.1,1.1,0.8,1.2c0.7,0.1,2.1-0.4,1.6,1c-0.4,1.2,0.4,3.4-2.1,3.3c-1.3-0.1-1.7,0.6-1.9,1.7
		c-0.3,1.7-0.9,3.4-1.2,5.1c-0.3,1.6-0.8,3.3,1.7,3.6c0.7,0.1,0.7,0.6,0.5,1.2c-0.1,0.6-0.4,1.1-0.4,1.7
		C182.2,29.4,180.7,30.5,178.3,30z"/>
	<path class="st6" d="M101.7,13.3c-2.6-0.7-3.8,0.3-4.1,2.9c-0.2,1.5-0.7,2.9-1,4.4c-0.2,1.4-0.4,2.8,1.6,3c0.8,0.1,0.9,0.6,0.8,1.2
		c0,0.1,0,0.2-0.1,0.2c-0.8,1.5,0,4.1-1.8,4.6c-2.6,0.7-5.5,0.8-8-0.8c-1.5-1-1.8-2.5-1.7-4.2c0.2-3.3,1.2-6.4,1.8-9.6
		c0.2-0.9,0.6-1.8-1-1.8c-0.8,0-0.8-0.6-0.5-1c0.6-1.1-0.2-3.1,1.9-3.4c0.8-0.1,1.5-0.2,1.5-1.2c0.1-2.3,1.5-3.1,3.6-3.1
		c0.5,0,1-0.3,1.5-0.3c1.3,0,2.9-1.2,3.8-0.3c0.8,0.7-0.2,2.3-0.4,3.5c-0.1,0.5-0.3,1.3,0.3,1.3c3.6-0.1,1.4,2.2,1.5,3.5
		C101.5,12.6,101.1,13,101.7,13.3C101.6,13.3,101.7,13.3,101.7,13.3z"/>
</g>
</svg>
