<?xml version="1.0" encoding="utf-8"?>
<!-- Generator: Adobe Illustrator 23.1.0, SVG Export Plug-In . SVG Version: 6.00 Build 0)  -->
<svg version="1.1" id="Capa_1" xmlns="http://www.w3.org/2000/svg" xmlns:xlink="http://www.w3.org/1999/xlink" x="0px" y="0px"
	 viewBox="0 0 477.9 477.9" style="enable-background:new 0 0 477.9 477.9;" xml:space="preserve">
<style type="text/css">
	.st0{fill:#E91E63;}
	.st1{fill:#209EAC;}
	.st2{fill:#FFFFFF;}
</style>
<circle class="st0" cx="237.3" cy="237.3" r="237.3"/>
<g>
	<path class="st2" d="M175.7,88.9c5.5,4.5,11.1,8.8,16.5,13.4c20.5,17.8,40.8,35.7,61.3,53.6c2.4,2.1,4.1,4.4,4.3,7.7
		c0.1,3.3-1.5,5.7-3.7,7.9c-21.7,21.6-43.4,43.3-65,65c-0.7,0.7-1.5,1.5-2.8,3c1.1,0.7,2.2,1.3,3,2.1c21.6,21.5,43.1,43,64.6,64.6
		c5.5,5.5,5.3,10.8-0.6,16c-24,21-48,42-72.1,63c-1.7,1.4-3.6,2.5-5.4,3.8c-1.6,0-3.1,0-4.7,0c-5.5-2.3-7.1-6.5-7.1-12.3
		c0.2-37.3,0.1-74.5,0.1-111.8c0-0.8,0-1.7,0-3.1c-1.1,1.1-1.9,1.7-2.5,2.3c-8.2,8.2-16.4,16.4-24.6,24.6
		c-10.5,10.5-20.9,21-31.5,31.4c-5.4,5.3-12.6,3.9-15.8-2.9c-0.2-0.3-0.4-0.6-0.6-1c0-1.6,0-3.1,0-4.7c1.7-2.2,3.2-4.6,5.1-6.6
		c21.2-21.3,42.5-42.5,63.7-63.8c0.7-0.7,1.4-1.5,2.5-2.7c-1.1-0.9-2.1-1.5-2.9-2.4c-21.1-21.1-42.2-42.2-63.3-63.3
		c-1.9-2-3.4-4.4-5.1-6.6c0-1.6,0-3.1,0-4.7c4.7-8.6,10.8-9.5,17.9-2.4c17.9,17.9,35.7,35.7,53.6,53.6c1,1,1.9,2.2,2.8,3.3
		c0.3-0.2,0.5-0.3,0.8-0.5c0-0.9,0-1.9,0-2.8c0-37.3,0.1-74.5-0.1-111.8c0-5.8,1.8-9.8,7.1-12.1C172.5,88.9,174.1,88.9,175.7,88.9z
		 M234.2,164.1c-17-14.9-34-29.8-51.4-44.9c0,32.5,0,64.5,0,96.3C199.9,198.4,217,181.4,234.2,164.1z M233.8,314.2
		c-17.3-17.3-34.3-34.4-50.8-51c0,31.1,0,63.1,0,95.4C200.3,343.5,217.3,328.6,233.8,314.2z"/>
	<path class="st2" d="M388.9,247.7c-0.8,5.3-1.4,10.6-2.4,15.9c-5,26.2-17,48.8-35.8,67.8c-4,4.1-9.8,4.2-13.6,0.4
		c-3.8-3.8-3.7-9.4,0.3-13.6c16-16.3,26.6-35.6,30.6-58.1c6.6-38-3.3-71.3-29.8-99.4c-2.6-2.8-4.5-5.7-3.7-9.6
		c0.8-3.6,3-6.1,6.6-7.2c3.7-1.1,6.9,0,9.6,2.7c12.5,12.6,22.1,27,28.7,43.4c4.9,12.2,7.9,24.9,8.9,38c0.1,0.8,0.3,1.5,0.5,2.3
		C388.9,236,388.9,241.9,388.9,247.7z"/>
	<path class="st2" d="M342.1,239c-0.5,22.7-8.3,42.4-24,58.8c-4.2,4.3-9.8,4.7-13.8,0.9c-4-3.7-4-9.6,0.2-13.8
		c25.1-25.7,25-66.6-0.1-92.2c-4-4.1-4-9.9-0.2-13.6c3.9-3.8,9.7-3.5,13.8,0.8C333.9,196.5,341.7,216.3,342.1,239z"/>
	<path class="st2" d="M229.6,238.9c0-5.2,4.3-9.4,9.5-9.4c5.1,0.1,9.2,4.3,9.2,9.4c0,5.2-4.3,9.4-9.5,9.4
		C233.7,248.2,229.6,244,229.6,238.9z"/>
	<path class="st2" d="M285.8,238.9c0,5.2-4.2,9.5-9.5,9.4c-5.1,0-9.3-4.2-9.3-9.3c0-5.2,4.3-9.5,9.5-9.4
		C281.6,229.6,285.8,233.8,285.8,238.9z"/>
</g>
</svg>
