<?xml version="1.0" encoding="utf-8"?>
<!-- Generator: Adobe Illustrator 24.0.0, SVG Export Plug-In . SVG Version: 6.00 Build 0)  -->
<svg version="1.1" id="Layer_1" xmlns="http://www.w3.org/2000/svg" xmlns:xlink="http://www.w3.org/1999/xlink" x="0px" y="0px"
	 viewBox="0 0 32 32" style="enable-background:new 0 0 32 32;" xml:space="preserve">
<style type="text/css">
	.st0{fill:#F7DC69;stroke:#747474;stroke-width:0.5;stroke-miterlimit:10;}
	.st1{fill:#747474;stroke:#747474;stroke-width:0.5;stroke-miterlimit:10;}
</style>
<g>
	<g>
		<g>
			<polygon class="st0" points="10.3,23.8 13.5,21.1 10.6,19.5 			"/>
			<path class="st0" d="M9.2,18.2l-0.4,0.2l0.1,0.4l0.8,3.8l0.2-3.4c0,0,0-0.3,0.2-0.5c0.2-0.1,13-7.3,13-7.3L9.2,18.2z"/>
			<polygon class="st0" points="1.9,15.9 8.5,17.8 28,8.5 			"/>
			<polygon class="st0" points="20.4,24.3 30.6,7.9 10.9,19 			"/>
		</g>
		<path class="st1" d="M31.5,7c-0.1-0.1-1,0.1-1,0.1S4,14.7,1,15.5c-0.2,0-0.3,0.1-0.3,0.1c-0.1,0-0.1,0.1-0.2,0.1
			c-0.1,0.1-0.1,0.3,0,0.4c0,0,0.1,0,0.1,0.1c0.1,0,0.3,0.1,0.8,0.2c1.9,0.6,6.5,2,6.5,2l1.5,6.3c0,0,0.1,0.5,0.5,0.2
			c0.4-0.4,3.9-3.4,3.9-3.4l-0.1-0.1c0,0,6.2,3.5,6.4,3.6s0.4-0.1,0.4-0.1L31.4,7.6C31.4,7.6,31.6,7.2,31.5,7z M8.4,17.8l-6.5-1.9
			l26.1-7.4L8.4,17.8z M20.3,24.3L10.7,19l19.7-11L20.3,24.3z M8.7,18.4l0.4-0.2l14-6.8c0,0-12.7,7.1-13,7.3s-0.2,0.5-0.2,0.5
			l-0.2,3.4l-0.8-3.8L8.7,18.4z M10.2,23.8l0.3-4.4l2.9,1.6L10.2,23.8z"/>
	</g>
</g>
</svg>
