<?xml version="1.0" encoding="utf-8"?>
<!-- Generator: Adobe Illustrator 23.1.0, SVG Export Plug-In . SVG Version: 6.00 Build 0)  -->
<svg version="1.1" id="Capa_1" xmlns="http://www.w3.org/2000/svg" xmlns:xlink="http://www.w3.org/1999/xlink" x="0px" y="0px"
	 viewBox="0 0 477.9 477.9" style="enable-background:new 0 0 477.9 477.9;" xml:space="preserve">
<style type="text/css">
	.st0{fill:#E91E63;}
	.st1{fill:#209EAC;}
	.st2{fill:#FFFFFF;}
</style>
<circle class="st0" cx="238.9" cy="238.9" r="237.3"/>
<g>
	<g>
		<g>
			<path class="st2" d="M334.2,203.9h-30.3v-50c0-35.8-29.2-65-65-65s-65,29.2-65,65v50h-30.3c-8.1,0-14.7,6.6-14.7,14.7v130.3h220
				V218.7C348.9,210.5,342.3,203.9,334.2,203.9z M272.5,270.4c2,2,2,5.1,0,7.1c-1,1-2.3,1.5-3.5,1.5c-1.3,0-2.6-0.5-3.5-1.5
				l-6.5-6.5l-6.5,6.5c-1,1-2.3,1.5-3.5,1.5c-1.3,0-2.6-0.5-3.5-1.5c-2-2-2-5.1,0-7.1l6.5-6.5l-6.5-6.5c-2-2-2-5.1,0-7.1
				c2-2,5.1-2,7.1,0l6.5,6.5l6.5-6.5c2-2,5.1-2,7.1,0c2,2,2,5.1,0,7.1l-6.5,6.5L272.5,270.4z M203.9,153.9c0-19.3,15.7-35,35-35
				s35,15.7,35,35v50h-70V153.9z M205.4,257.5c-2-2-2-5.1,0-7.1c2-2,5.1-2,7.1,0l6.5,6.5l6.5-6.5c2-2,5.1-2,7.1,0c2,2,2,5.1,0,7.1
				l-6.5,6.5l6.5,6.5c2,2,2,5.1,0,7.1c-1,1-2.3,1.5-3.5,1.5c-1.3,0-2.6-0.5-3.5-1.5l-6.5-6.5l-6.5,6.5c-1,1-2.3,1.5-3.5,1.5
				c-1.3,0-2.6-0.5-3.5-1.5c-2-2-2-5.1,0-7.1l6.5-6.5L205.4,257.5z M165.4,257.5c-2-2-2-5.1,0-7.1c2-2,5.1-2,7.1,0l6.5,6.5l6.5-6.5
				c2-2,5.1-2,7.1,0c2,2,2,5.1,0,7.1l-6.5,6.5l6.5,6.5c2,2,2,5.1,0,7.1c-1,1-2.3,1.5-3.5,1.5c-1.3,0-2.6-0.5-3.5-1.5l-6.5-6.5
				l-6.5,6.5c-1,1-2.3,1.5-3.5,1.5s-2.6-0.5-3.5-1.5c-2-2-2-5.1,0-7.1l6.5-6.5L165.4,257.5z M308.9,313.9h-140c-2.8,0-5-2.2-5-5
				c0-2.8,2.2-5,5-5h140c2.8,0,5,2.2,5,5C313.9,311.7,311.7,313.9,308.9,313.9z M312.5,270.4c2,2,2,5.1,0,7.1c-1,1-2.3,1.5-3.5,1.5
				c-1.3,0-2.6-0.5-3.5-1.5l-6.5-6.5l-6.5,6.5c-1,1-2.3,1.5-3.5,1.5c-1.3,0-2.6-0.5-3.5-1.5c-2-2-2-5.1,0-7.1l6.5-6.5l-6.5-6.5
				c-2-2-2-5.1,0-7.1c2-2,5.1-2,7.1,0l6.5,6.5l6.5-6.5c2-2,5.1-2,7.1,0c2,2,2,5.1,0,7.1l-6.5,6.5L312.5,270.4z"/>
			<path class="st2" d="M128.9,374.2c0,8.1,6.6,14.7,14.7,14.7h190.5c8.1,0,14.7-6.6,14.7-14.7v-15.3h-220V374.2z"/>
		</g>
	</g>
</g>
</svg>
