<?xml version="1.0" encoding="utf-8"?>
<!-- Generator: Adobe Illustrator 23.1.0, SVG Export Plug-In . SVG Version: 6.00 Build 0)  -->
<svg version="1.1" id="Capa_1" xmlns="http://www.w3.org/2000/svg" xmlns:xlink="http://www.w3.org/1999/xlink" x="0px" y="0px"
	 viewBox="0 0 477.9 477.9" style="enable-background:new 0 0 477.9 477.9;" xml:space="preserve">
<style type="text/css">
	.st0{fill:#E91E63;}
	.st1{fill:#209EAC;}
	.st2{fill:#FFFFFF;}
</style>
<circle class="st0" cx="238.9" cy="238.9" r="237.3"/>
<g>
	<g>
		<path class="st2" d="M363.9,176.4h-250c-13.8,0-25,11.2-25,25v75c0,13.8,11.2,25,25,25h250c13.8,0,25-11.2,25-25v-75
			C388.9,187.6,377.7,176.4,363.9,176.4z M164.5,242.9c3,1.7,4,5.5,2.3,8.5c-1.2,2-3.3,3.1-5.4,3.1c-1.1,0-2.1-0.3-3.1-0.8l-6.9-4
			v7.9c0,3.5-2.8,6.3-6.3,6.3c-3.5,0-6.3-2.8-6.3-6.3v-7.9l-6.9,4c-1,0.6-2.1,0.8-3.1,0.8c-2.2,0-4.3-1.1-5.4-3.1
			c-1.7-3-0.7-6.8,2.3-8.5l6.9-4l-6.9-4c-3-1.7-4-5.5-2.3-8.5c1.7-3,5.6-4,8.5-2.3l6.9,4v-7.9c0-3.5,2.8-6.3,6.3-6.3
			s6.3,2.8,6.3,6.3v7.9l6.9-4c3-1.7,6.8-0.7,8.5,2.3c1.7,3,0.7,6.8-2.3,8.5l-6.9,4L164.5,242.9z M227,242.9c3,1.7,4,5.5,2.3,8.5
			c-1.2,2-3.3,3.1-5.4,3.1c-1.1,0-2.1-0.3-3.1-0.8l-6.9-4v7.9c0,3.5-2.8,6.3-6.3,6.3s-6.3-2.8-6.3-6.3v-7.9l-6.9,4
			c-1,0.6-2.1,0.8-3.1,0.8c-2.2,0-4.3-1.1-5.4-3.1c-1.7-3-0.7-6.8,2.3-8.5l6.9-4l-6.9-4c-3-1.7-4-5.5-2.3-8.5c1.7-3,5.5-4,8.5-2.3
			l6.9,4v-7.9c0-3.5,2.8-6.3,6.3-6.3s6.3,2.8,6.3,6.3v7.9l6.9-4c3-1.7,6.8-0.7,8.5,2.3c1.7,3,0.7,6.8-2.3,8.5l-6.9,4L227,242.9z
			 M289.5,242.9c3,1.7,4,5.5,2.3,8.5c-1.2,2-3.3,3.1-5.4,3.1c-1.1,0-2.1-0.3-3.1-0.8l-6.9-4v7.9c0,3.5-2.8,6.3-6.3,6.3
			s-6.3-2.8-6.3-6.3v-7.9l-6.9,4c-1,0.6-2.1,0.8-3.1,0.8c-2.2,0-4.3-1.1-5.4-3.1c-1.7-3-0.7-6.8,2.3-8.5l6.9-4l-6.9-4
			c-3-1.7-4-5.5-2.3-8.5c1.7-3,5.6-4,8.5-2.3l6.9,4v-7.9c0-3.5,2.8-6.3,6.3-6.3s6.3,2.8,6.3,6.3v7.9l6.9-4c3-1.7,6.8-0.7,8.5,2.3
			c1.7,3,0.7,6.8-2.3,8.5l-6.9,4L289.5,242.9z M352,242.9c3,1.7,4,5.5,2.3,8.5c-1.2,2-3.3,3.1-5.4,3.1c-1.1,0-2.1-0.3-3.1-0.8
			l-6.9-4v7.9c0,3.5-2.8,6.3-6.3,6.3s-6.3-2.8-6.3-6.3v-7.9l-6.9,4c-1,0.6-2.1,0.8-3.1,0.8c-2.2,0-4.3-1.1-5.4-3.1
			c-1.7-3-0.7-6.8,2.3-8.5l6.9-4l-6.9-4c-3-1.7-4-5.5-2.3-8.5c1.7-3,5.5-4,8.5-2.3l6.9,4v-7.9c0-3.5,2.8-6.3,6.3-6.3
			s6.3,2.8,6.3,6.3v7.9l6.9-4c3-1.7,6.8-0.7,8.5,2.3c1.7,3,0.7,6.8-2.3,8.5l-6.9,4L352,242.9z"/>
	</g>
</g>
</svg>
