<?xml version="1.0" encoding="utf-8"?>
<!-- Generator: Adobe Illustrator 23.1.0, SVG Export Plug-In . SVG Version: 6.00 Build 0)  -->
<svg version="1.1" id="Capa_1" xmlns="http://www.w3.org/2000/svg" xmlns:xlink="http://www.w3.org/1999/xlink" x="0px" y="0px"
	 viewBox="0 0 477.9 477.9" style="enable-background:new 0 0 477.9 477.9;" xml:space="preserve">
<style type="text/css">
	.st0{fill:#E91E63;}
	.st1{fill:#209EAC;}
	.st2{fill:#FFFFFF;}
</style>
<g>
	<g>
		<path class="st2" d="M238.9,1.7C108.1,1.7,1.7,108.1,1.7,238.9s106.4,237.2,237.2,237.2s237.2-106.4,237.2-237.2
			S369.7,1.7,238.9,1.7z M377.3,248.8c0,5.5-4.4,9.9-9.9,9.9H258.7v108.7c0,5.5-4.4,9.9-9.9,9.9H229c-5.5,0-9.9-4.4-9.9-9.9V258.7
			H110.4c-5.5,0-9.9-4.4-9.9-9.9V229c0-5.5,4.4-9.9,9.9-9.9h108.7V110.4c0-5.5,4.4-9.9,9.9-9.9h19.8c5.5,0,9.9,4.4,9.9,9.9v108.7
			h108.7c5.5,0,9.9,4.4,9.9,9.9V248.8z"/>
	</g>
</g>
</svg>
