<?xml version="1.0" encoding="utf-8"?>
<!-- Generator: Adobe Illustrator 24.0.0, SVG Export Plug-In . SVG Version: 6.00 Build 0)  -->
<svg version="1.1" xmlns="http://www.w3.org/2000/svg" xmlns:xlink="http://www.w3.org/1999/xlink" x="0px" y="0px"
	 viewBox="0 0 1169.8 666.6" style="enable-background:new 0 0 1169.8 666.6;" xml:space="preserve">
<style type="text/css">
	.st0{fill:#F7DC69;}
	.st1{fill:#747474;stroke:#747474;stroke-width:8.7146;stroke-miterlimit:10;}
	.st2{fill:#F7DC69;stroke:#747474;stroke-width:3.7889;stroke-miterlimit:10;}
	.st3{fill:#747474;stroke:#747474;stroke-width:3.7889;stroke-miterlimit:10;}
	.st4{fill:#FFFFFF;stroke:#FFFFFF;stroke-width:8.7146;stroke-miterlimit:10;}
	.st5{fill:#F7DC69;stroke:#FFFFFF;stroke-width:3.7889;stroke-miterlimit:10;}
	.st6{fill:#FFFFFF;stroke:#FFFFFF;stroke-width:3.7889;stroke-miterlimit:10;}
	.st7{display:none;}
	.st8{display:inline;}
</style>
<g id="Box">
</g>
<g id="Outline">
</g>
<g id="Text">
	<g>
		<g>
			<path class="st1" d="M4.4,473.4c17.6-2.4,38.4-4.1,61-4.1c41,0,70.5,8.3,89.9,23.7c19.8,15.2,31.4,37.1,31.4,67.4
				c0,30.9-11.4,55.9-31.9,73.2c-21,17.5-55.3,27.1-98.2,27.1c-20.5,0-37.5-0.7-52.1-2.1V473.4z M33.1,640c7.3,1,17.9,1.1,28.8,1.1
				c61.4,0.1,94.5-28.9,94.5-79.8c0.3-44.5-29.3-72.5-89.7-72.5c-14.8,0-25.9,1.2-33.6,2.5V640z"/>
			<path class="st1" d="M368.1,590.3c0,50-40.9,71.9-79.1,71.9c-43.2,0-76.5-26.7-76.5-69.6c0-45.2,35-71.7,79-71.7
				C337.2,521,368.1,549.1,368.1,590.3z M241.9,591.9c0,29.6,20,51.9,48.2,51.9c27.8,0,48.5-22,48.5-52.7c0-22.9-13.6-51.8-48-51.8
				C256.6,539.4,241.9,566.2,241.9,591.9z"/>
			<path class="st1" d="M595.2,563.1c0,64.6-46.4,99.1-102.9,99.1c-58.8,0-99.7-38.7-99.7-95.6c0-59.7,43.5-98.9,102.7-98.9
				C555.9,467.8,595.2,507.2,595.2,563.1z M422.9,566.1c0,40.3,25.8,76.4,71,76.4c45.5,0,71.1-35.5,71.1-78.3
				c0-37.5-23-76.6-70.7-76.6C446.6,487.6,422.9,524.9,422.9,566.1z"/>
			<path class="st1" d="M632,566.1c0-16-0.5-29.5-1.3-42.1h25.4l1.1,26.5h1c7.4-18.1,25-29.6,44.3-29.6c3.1,0,5.4,0.2,8.1,0.7v23.1
				c-3-0.5-5.9-0.7-9.8-0.7c-20.4,0-34.8,13.1-38.7,31.4c-0.7,3.4-1.2,7.5-1.2,11.5v72.2H632V566.1z"/>
			<path class="st1" d="M873.8,460.8v163.5c0,12,0.5,25.5,1.3,34.8h-25.7l-1.5-23.4h-0.8c-8.9,15.1-28,26.4-54,26.4
				c-38.6,0-68.3-27.7-68.3-68.6c-0.2-45.2,32.8-72.6,71.5-72.6c24.4,0,40.9,9.7,48,20.5h0.7v-80.7H873.8z M845,579
				c0-3.2-0.3-7.3-1.2-10.5c-4.5-15.5-20.1-28.3-41.9-28.3c-30,0-47.9,22.3-47.9,52c0,27.4,16.1,50.2,47.3,50.2
				c19.4,0,37-11.1,42.3-29.5c1-3.2,1.4-6.7,1.4-10.5V579z"/>
			<path class="st1" d="M938.2,596c0.6,33.2,25.4,46.9,54.5,46.9c20.7,0,33.4-3.2,44.1-6.9l5.1,17.5c-10.1,3.9-27.8,8.6-53.1,8.6
				c-48.9,0-78.3-27.7-78.3-68.2c0-40.9,28.4-72.9,74.9-72.9c51.9,0,65.5,38.7,65.5,63.5c0,5.2-0.3,8.9-1,11.5H938.2z M1023,578.4
				c0.3-15.5-7.5-39.8-39.9-39.8c-29.5,0-42.1,22.7-44.4,39.8H1023z"/>
			<path class="st1" d="M1086.9,566.1c0-16-0.5-29.5-1.3-42.1h25.4l1.1,26.5h1c7.4-18.1,25-29.6,44.3-29.6c3.1,0,5.4,0.2,8.1,0.7
				v23.1c-3-0.5-5.9-0.7-9.8-0.7c-20.4,0-34.8,13.1-38.7,31.4c-0.7,3.4-1.2,7.5-1.2,11.5v72.2h-28.8V566.1z"/>
		</g>
		<g>
			<g>
				<polygon class="st2" points="462.1,332.4 524.7,277.7 468.2,246.1 				"/>
				<path class="st2" d="M440.4,220.9l-7,3.4l1.7,7.9l16.4,74.1l4.8-67.1c0,0,0.3-6.3,4.9-9c4.5-2.7,255.8-143,255.8-143
					L440.4,220.9z"/>
				<polygon class="st2" points="297.5,175.2 426.5,213.5 812.6,28.7 				"/>
				<polygon class="st2" points="662.3,341.7 863.2,18.3 473.7,236.2 				"/>
			</g>
			<path class="st3" d="M880.1,0.7c-2-2.3-18.7,1.7-18.7,1.7S337.5,151.3,278.9,168c-3.2,0.9-5.1,1.4-5.3,1.5
				c-1.2,0.3-2.3,1.2-3.1,2.2c-1.7,2.3-2.1,5.6,0.7,7.6c0.6,0.4,1.4,0.8,2.3,1.1c1.3,0.4,6.8,2.1,15,4.6
				c37.1,11.5,128.7,39.8,128.7,39.8l29.3,123.4c0,0,1.9,10.3,10,3.2c8.1-7.1,76.8-66.9,76.8-66.9l-1.2-1.4c0,0,122.2,68.2,127,71
				c4.8,2.9,7.6-2,7.6-2L878.7,11C878.7,11,882,3.1,880.1,0.7z M424.1,213.5l-128.9-38.3L810.2,28.7L424.1,213.5z M659.9,341.7
				L471.3,236.2L860.8,18.3L659.9,341.7z M431,224.3l7-3.4L714.6,87.1c0,0-251.2,140.3-255.8,143c-4.5,2.7-4.9,9-4.9,9l-4.8,67.1
				l-16.4-74.1L431,224.3z M459.7,332.4l6.1-86.3l56.5,31.6L459.7,332.4z"/>
		</g>
	</g>
</g>
<g id="Layer_6" class="st7">
</g>
</svg>
